<?xml version="1.0" encoding="UTF-8" standalone="no"?>
<!-- Created with Inkscape (http://www.inkscape.org/) -->

<svg
   width="256"
   height="256"
   viewBox="0 0 67.733331 67.733331"
   version="1.1"
   id="svg1420"
   inkscape:version="1.1.2 (b8e25be8, 2022-02-05)"
   sodipodi:docname="skdh_features.svg"
   xmlns:inkscape="http://www.inkscape.org/namespaces/inkscape"
   xmlns:sodipodi="http://sodipodi.sourceforge.net/DTD/sodipodi-0.dtd"
   xmlns="http://www.w3.org/2000/svg"
   xmlns:svg="http://www.w3.org/2000/svg">
  <sodipodi:namedview
     id="namedview1422"
     pagecolor="#ffffff"
     bordercolor="#666666"
     borderopacity="1.0"
     inkscape:pageshadow="2"
     inkscape:pageopacity="0.0"
     inkscape:pagecheckerboard="0"
     inkscape:document-units="px"
     showgrid="false"
     width="256mm"
     units="px"
     inkscape:zoom="3.499486"
     inkscape:cx="122.58943"
     inkscape:cy="135.01983"
     inkscape:window-width="1775"
     inkscape:window-height="1357"
     inkscape:window-x="1680"
     inkscape:window-y="25"
     inkscape:window-maximized="0"
     inkscape:current-layer="layer1" />
  <defs
     id="defs1417">
    <inkscape:perspective
       sodipodi:type="inkscape:persp3d"
       inkscape:vp_x="13.817378 : 58.917684 : 1"
       inkscape:vp_y="0 : 1000 : 0"
       inkscape:vp_z="66.272958 : 55.098246 : 1"
       inkscape:persp3d-origin="33.866666 : 22.577777 : 1"
       id="perspective7856" />
    <inkscape:path-effect
       effect="skeletal"
       id="path-effect6731"
       is_visible="true"
       lpeversion="1"
       pattern="M -0.70823026,6.5345702 H 3.247402 c 1.4694251,0 2.6523919,1.1829668 2.6523919,2.6523919 v 3.9556319 c 0,1.469425 -1.1829668,2.652392 -2.6523919,2.652392 h -3.95563226 c -1.46942514,0 -2.65239194,-1.182967 -2.65239194,-2.652392 V 9.1869621 c 0,-1.4694251 1.1829668,-2.6523919 2.65239194,-2.6523919 z"
       copytype="repeated"
       prop_scale="1"
       scale_y_rel="false"
       spacing="12"
       normal_offset="0"
       tang_offset="0"
       prop_units="false"
       vertical_pattern="false"
       hide_knot="false"
       fuse_tolerance="0" />
  </defs>
  <g
     inkscape:label="Layer 1"
     inkscape:groupmode="layer"
     id="layer1">
    <path
       style="fill:none;stroke:#000000;stroke-width:0.569935;stroke-linecap:butt;stroke-linejoin:miter;stroke-miterlimit:4;stroke-dasharray:none;stroke-opacity:1"
       d="m 1.3786036,29.972886 c 0.5067592,-0.07798 0.9828981,-2.112942 1.4308831,-2.222154 0.4998985,-0.121921 0.9647392,1.32347 1.3979687,1.170961 0.4877818,-0.171788 0.9354867,-3.437596 1.3480155,-3.636418 0.4675226,-0.225318 0.889874,0.294678 1.2741843,0.05181 0.4433214,-0.280138 0.836011,-0.170819 1.1890548,-0.448265 0.4233315,-0.33259 0.7896552,0.691354 1.1178515,0.407015 0.4374946,-0.379119 0.8072433,-2.364432 1.1540505,-2.557761 0.464098,-0.258705 0.886945,-1.947185 1.37603,-1.634196 0.608098,0.389243 0.916778,6.50749 1.088243,6.759518 0.262799,0.38612 0.203454,-3.297689 0.406153,-2.659756 0.105443,0.331944 0.28197,-0.292202 0.61176,0.251058 0.26463,0.435772 0.508257,4.139397 0.742513,4.504299 0.282724,0.440403 0.551769,0.551554 0.827169,0.871866 0.342392,0.398183 0.694584,-3.714288 1.095675,-3.533022 0.400229,0.180835 0.849033,-0.0032 1.385077,-0.07313 0.521288,-0.06796 1.010912,-0.323651 1.449268,-0.436526 0.534428,-0.137538 0.992818,4.717769 1.339625,4.449155 0.385366,-0.298664 0.633086,-1.827849 0.694477,-2.380695 0.04007,-0.36027 0.267968,-2.799664 0.59582,-3.220033 0.265168,-0.340023 0.595712,-1.980358 0.945105,-2.278807 0.369318,-0.315358 0.759638,2.033564 1.116031,1.847774 0.577079,-0.300818 1.065195,1.662738 1.231383,1.995114 0.120521,0.24115 0.231133,-2.464704 0.375026,-1.923167 0.108889,0.409707 0.236841,-1.132618 0.40249,-0.73002 0.185359,0.450635 0.418108,6.136988 0.724419,6.374368 0.323113,0.250305 0.727973,0.494686 1.2456,0.26086 0.310511,-0.140231 0.661627,-2.785878 1.059917,-3.173398 0.392905,-0.38235 0.688446,0.04588 0.916025,-0.306311 0.294571,-0.456019 0.475514,-2.113265 0.606698,-2.520925 0.159402,-0.49544 0.245673,-1.279957 0.373626,-1.707866 0.135061,-0.451496 0.31665,0.902023 0.680044,0.520642 0.272169,-0.285632 0.646333,-2.579409 1.179146,-2.828098 0.367595,-0.171465 0.81069,1.573451 1.347919,1.41868 0.415415,-0.119767 0.833415,1.876531 1.250877,1.674155 0.391936,-0.190098 0.783548,-0.943597 1.172361,-1.188732 0.372441,-0.234687 0.742189,-3.731413 1.107415,-4.00132 0.358762,-0.26506 0.713002,0.108997 1.060886,-0.175558 0.349177,-0.285631 0.691892,0.194406 1.026099,-0.0965 0.345299,-0.300602 0.68166,-1.925428 1.006603,-2.215799 0.348747,-0.311588 0.684461,2.482475 1.004558,2.201582 0.364794,-0.320204 0.709232,-2.705638 1.029222,-2.958528 0.415523,-0.32839 0.789795,-0.681337 1.114092,-0.839877 0.54046,-0.264306 0.942089,-1.400694 1.16396,-0.956952 0.153263,0.306526 0.359732,0.533674 0.603682,1.194224 0.163926,0.443957 0.344762,0.422739 0.537768,0.977739 0.165541,0.475945 0.340022,1.71896 0.520319,2.249834 0.166834,0.490808 0.338622,2.785016 0.513103,3.30232 0.169203,0.501363 0.340884,-2.391357 0.512887,-1.883209 0.172543,0.509764 0.345408,2.355061 0.51655,2.853732 0.177712,0.518273 0.353485,3.568672 0.524843,4.055064 0.187297,0.531521 0.36921,-2.230662 0.542721,-1.762364 0.207546,0.560277 0.402814,4.053341 0.580526,4.481573 0.30868,0.744237 0.564047,-0.166941 0.737236,-0.0083 0.390643,0.358117 0.833523,1.14662 1.255293,0.564909 0.280677,-0.387305 0.551984,-0.426293 0.792164,-0.900192 0.296833,-0.585696 0.546061,-1.135957 0.706755,-1.403817 0.146478,-0.244058 0.204639,-2.753674 0.241043,-3.310398 0.02617,-0.400444 0.04114,3.6096 0.06958,3.161766 0.02822,-0.445249 0.06968,-3.631464 0.148739,-4.029431 0.09801,-0.492855 0.253536,-2.838868 0.51278,-3.098113 0.24632,-0.246319 0.607129,0.659474 1.017805,0.236088 0.320743,-0.33076 0.671859,0.10555 1.022759,-0.242981 0.364041,-0.361778 0.727866,-1.46607 1.056794,-1.760102 0.549292,-0.490916 1.001435,-1.651645 1.196056,-1.623857 0.180512,0.02574 0.443203,1.499997 0.743482,2.06566 0.182667,0.344222 0.379335,-1.292021 0.579988,-0.895884 0.20033,0.395705 0.404537,3.645357 0.60282,3.981502 0.30168,0.511488 0.589358,-0.651718 0.827923,-0.604005 0.221332,0.04427 0.678429,-0.09144 1.225997,0.151647 0.371257,0.164788 0.784195,0.244812 1.193256,0.439865 0.414122,0.197421 0.824368,0.539382 1.183777,0.716879 0.67886,0.335176 1.176453,0.978385 1.176453,0.978385"
       id="path1125" />
    <rect
       style="fill:#ffffff;stroke:#000000;stroke-width:0.689965"
       id="rect2447"
       width="32.325226"
       height="6.3700895"
       x="49.114368"
       y="-23.941664"
       ry="3.1850448"
       transform="rotate(58.265942)" />
    <circle
       style="fill:#ffffff;stroke:#000000;stroke-width:0.85409"
       id="path2423"
       cx="39.232738"
       cy="23.51819"
       r="14.526242" />
    <path
       style="fill:#ffffff;stroke:#000000;stroke-width:0.264583"
       id="path2809"
       sodipodi:type="arc"
       sodipodi:cx="39.281967"
       sodipodi:cy="23.432251"
       sodipodi:rx="11.962648"
       sodipodi:ry="11.962629"
       sodipodi:start="3.3053827"
       sodipodi:end="5.5142931"
       sodipodi:open="true"
       sodipodi:arc-type="arc"
       d="M 27.479422,21.48164 A 11.962648,11.962629 0 0 1 35.71762,12.01297 11.962648,11.962629 0 0 1 47.8793,15.114162" />
    <path
       id="path2423-4"
       style="fill:#ffffff;stroke:#000000;stroke-width:1.42484;stroke-linecap:butt;stroke-miterlimit:4;stroke-dasharray:none"
       d="m 50.870728,32.147882 c -0.03924,-0.374271 -0.07798,-0.725742 -0.117439,-1.125955 -0.067,-0.679571 -0.134481,-1.361093 -0.202039,-1.921861 -0.03378,-0.280385 -0.0674,-0.530247 -0.101296,-0.735239 -0.01694,-0.102491 -0.03423,-0.193674 -0.0512,-0.27161 -0.01698,-0.07794 -0.03365,-0.143009 -0.05065,-0.192576 -0.03273,-0.09538 -0.0657,-0.222811 -0.09852,-0.374575 -0.03282,-0.151765 -0.06564,-0.32773 -0.09852,-0.519844 -0.06575,-0.384224 -0.13165,-0.832937 -0.197585,-1.282353 -0.06594,-0.449417 -0.132122,-0.899346 -0.198144,-1.285694 -0.03301,-0.193174 -0.06606,-0.370381 -0.09907,-0.523739 -0.03301,-0.153357 -0.06607,-0.283188 -0.09908,-0.380698 -0.0082,-0.0243 -0.01626,-0.04343 -0.02449,-0.05788 -0.0082,-0.01445 -0.01626,-0.02426 -0.02448,-0.0295 -0.0082,-0.0053 -0.01628,-0.0061 -0.02449,-0.0028 -0.0082,0.0033 -0.01682,0.01099 -0.02504,0.02226 -0.01644,0.02256 -0.03255,0.06023 -0.04898,0.110758 -0.01644,0.05052 -0.03311,0.114156 -0.04953,0.187569 -0.03285,0.146827 -0.06572,0.334189 -0.09852,0.542105 -0.0328,0.207915 -0.06522,0.436168 -0.09796,0.664552 -0.03273,0.228388 -0.06585,0.456872 -0.09852,0.665111 -0.03267,0.20824 -0.06538,0.396299 -0.09796,0.543775 -0.01628,0.07373 -0.03216,0.137192 -0.04842,0.188124 -0.01626,0.05093 -0.03274,0.08938 -0.04898,0.112428 -0.0081,0.01152 -0.01638,0.01921 -0.02449,0.02282 -0.0081,0.0036 -0.01582,0.0033 -0.02393,-0.0017 -0.0081,-0.005 -0.01639,-0.0148 -0.02449,-0.02894 -0.0081,-0.01415 -0.01639,-0.0328 -0.02449,-0.05677 -0.01668,-0.04948 -0.03288,-0.109835 -0.04953,-0.179216 -0.01666,-0.06938 -0.03347,-0.147707 -0.05009,-0.23432 -0.03324,-0.17322 -0.06654,-0.378351 -0.09963,-0.604442 -0.06618,-0.452183 -0.132083,-0.988654 -0.197586,-1.523908 -0.06551,-0.535255 -0.13064,-1.069557 -0.195359,-1.516671 -0.03235,-0.223557 -0.0647,-0.425004 -0.09685,-0.594425 -0.01607,-0.08471 -0.03185,-0.161591 -0.04786,-0.228752 -0.01601,-0.06716 -0.03191,-0.124486 -0.04786,-0.171429 -0.03449,-0.101543 -0.06877,-0.220576 -0.102966,-0.351754 -0.0342,-0.13118 -0.06852,-0.274923 -0.102405,-0.426897 -0.06779,-0.303942 -0.135032,-0.640509 -0.201483,-0.974565 -0.06645,-0.334058 -0.132063,-0.665547 -0.197027,-0.958984 -0.03248,-0.146715 -0.06476,-0.283556 -0.09685,-0.406856 -0.03209,-0.1233 -0.06406,-0.23289 -0.09573,-0.323928 -0.03692,-0.106164 -0.07332,-0.198796 -0.109647,-0.280514 -0.03632,-0.08173 -0.07228,-0.152452 -0.107975,-0.215954 -0.03569,-0.0635 -0.07126,-0.119359 -0.106304,-0.170867 -0.03505,-0.05152 -0.06972,-0.09897 -0.104085,-0.144712 -0.06873,-0.09148 -0.136203,-0.177534 -0.202036,-0.283298 -0.03291,-0.05288 -0.06525,-0.110647 -0.0974,-0.176435 -0.03215,-0.06578 -0.06381,-0.13938 -0.09518,-0.2243 -0.04667,-0.126349 -0.09265,-0.242373 -0.137474,-0.349529 -0.04483,-0.107155 -0.08847,-0.205627 -0.131353,-0.296658 -0.08577,-0.18206 -0.167969,-0.334921 -0.245451,-0.470862 -0.07748,-0.135941 -0.1503,-0.254667 -0.218736,-0.36901 -0.06844,-0.114344 -0.132274,-0.224475 -0.190906,-0.341739 -0.02122,-0.04244 -0.04344,-0.07517 -0.06679,-0.09963 -0.02336,-0.02447 -0.04801,-0.04066 -0.07348,-0.04898 -0.02545,-0.0083 -0.05206,-0.0087 -0.07959,-0.0028 -0.02753,0.006 -0.05615,0.01883 -0.08571,0.03729 -0.02958,0.01846 -0.0597,0.04269 -0.09128,0.07179 -0.03158,0.02911 -0.0644,0.06282 -0.09796,0.100747 -0.06713,0.07584 -0.138299,0.167609 -0.213166,0.267712 -0.07486,0.1001 -0.153629,0.208659 -0.23599,0.318362 -0.08236,0.109705 -0.168083,0.220395 -0.257697,0.32504 -0.04481,0.05232 -0.0909,0.103084 -0.137474,0.151389 -0.04657,0.0483 -0.09362,0.09446 -0.141925,0.136919 -0.0483,0.04247 -0.09748,0.08153 -0.147493,0.116326 -0.05002,0.03479 -0.100811,0.06489 -0.152503,0.09016 -0.06203,0.03033 -0.125398,0.06567 -0.189794,0.104635 -0.0644,0.03897 -0.129763,0.08171 -0.196471,0.128013 -0.133413,0.0926 -0.271745,0.198713 -0.414091,0.312795 -0.284697,0.228165 -0.586513,0.488989 -0.904439,0.740248 -0.03061,0.02419 -0.0615,0.06098 -0.09239,0.109088 -0.03089,0.04811 -0.06177,0.107532 -0.09295,0.176434 -0.03118,0.0689 -0.0626,0.14721 -0.09406,0.233765 -0.03147,0.08656 -0.06343,0.181111 -0.09518,0.282184 -0.0635,0.202145 -0.127415,0.430395 -0.192021,0.671788 -0.0646,0.241393 -0.129671,0.495828 -0.195359,0.751379 -0.06569,0.25555 -0.131951,0.511776 -0.198699,0.756389 -0.06674,0.244613 -0.134253,0.477675 -0.202036,0.686259 -0.0339,0.10429 -0.0677,0.202737 -0.101856,0.293317 -0.03414,0.09058 -0.06858,0.173388 -0.102965,0.247118 -0.03439,0.07373 -0.06888,0.138275 -0.103526,0.192019 -0.03464,0.05374 -0.06919,0.09683 -0.104074,0.127458 -0.0153,0.01343 -0.03085,0.02219 -0.04619,0.02672 -0.01536,0.0045 -0.03079,0.005 -0.04619,0.0011 -0.0154,-0.0038 -0.03075,-0.01184 -0.04619,-0.02338 -0.01544,-0.01155 -0.03071,-0.02693 -0.0462,-0.04563 -0.03099,-0.03743 -0.06234,-0.08875 -0.09351,-0.151389 -0.03117,-0.06264 -0.06216,-0.136613 -0.09351,-0.219849 -0.06269,-0.16647 -0.125839,-0.369372 -0.189239,-0.590527 -0.06339,-0.221155 -0.127369,-0.460168 -0.19146,-0.699062 -0.0641,-0.238891 -0.128364,-0.477705 -0.193132,-0.697389 -0.03239,-0.109844 -0.06485,-0.21524 -0.0974,-0.313354 -0.03255,-0.09812 -0.06525,-0.188728 -0.09796,-0.270496 -0.03272,-0.08177 -0.06564,-0.154592 -0.09852,-0.215396 -0.03288,-0.0608 -0.06547,-0.110045 -0.09852,-0.145268 -0.01652,-0.01761 -0.03298,-0.0314 -0.04953,-0.04175 -0.01656,-0.01034 -0.0335,-0.01697 -0.05009,-0.01948 -0.0166,-0.0025 -0.03289,-8.97e-4 -0.04953,0.0051 -0.01664,0.0059 -0.03341,0.01626 -0.05009,0.03117 -0.03107,0.02778 -0.06228,0.06358 -0.0935,0.106304 -0.03121,0.04273 -0.06272,0.09235 -0.09406,0.148049 -0.06269,0.111411 -0.125463,0.246568 -0.18868,0.397954 -0.06322,0.151383 -0.126622,0.318771 -0.19035,0.494239 -0.06373,0.175469 -0.127796,0.359002 -0.192019,0.542664 -0.06422,0.183658 -0.128432,0.36726 -0.193131,0.543219 -0.0647,0.175956 -0.129637,0.344101 -0.194802,0.496465 -0.03258,0.07618 -0.06526,0.14865 -0.09796,0.215953 -0.0327,0.06731 -0.06571,0.129458 -0.09852,0.185896 -0.03281,0.05644 -0.06559,0.107241 -0.09852,0.150833 -0.03291,0.04359 -0.06604,0.08034 -0.09908,0.109089 -0.03197,0.02782 -0.06366,0.05094 -0.09573,0.07013 -0.03206,0.01918 -0.06413,0.03451 -0.09629,0.04619 -0.03216,0.01169 -0.06459,0.01971 -0.09685,0.02504 -0.03226,0.0054 -0.06448,0.0076 -0.09685,0.0078 -0.06472,2.82e-4 -0.129708,-0.0086 -0.194804,-0.02226 -0.0651,-0.01362 -0.130458,-0.03175 -0.195915,-0.05009 -0.06545,-0.01834 -0.131219,-0.03678 -0.197027,-0.05064 -0.06581,-0.01387 -0.131437,-0.02316 -0.197584,-0.02337 -0.03308,-1.12e-4 -0.06647,0.0023 -0.09963,0.0072 -0.03316,0.0051 -0.06639,0.01262 -0.09963,0.02393 -0.03324,0.01131 -0.06631,0.02578 -0.09963,0.04453 -0.03331,0.01874 -0.06679,0.0417 -0.100187,0.06902 -0.03327,0.02722 -0.06628,0.0503 -0.09963,0.07013 -0.03334,0.01983 -0.06677,0.03668 -0.100187,0.05009 -0.03342,0.01341 -0.06725,0.02377 -0.100746,0.03173 -0.0335,0.008 -0.06661,0.01321 -0.100187,0.01669 -0.06713,0.007 -0.134632,0.0057 -0.202039,5.56e-4 -0.0674,-0.0052 -0.13492,-0.01388 -0.202592,-0.02337 -0.06767,-0.0095 -0.135224,-0.01953 -0.20315,-0.0256 -0.06793,-0.006 -0.136094,-0.0084 -0.204265,-0.0033 -0.03409,0.0026 -0.06826,0.0071 -0.102415,0.01391 -0.03414,0.0068 -0.06821,0.01582 -0.102406,0.02783 -0.03421,0.01201 -0.0687,0.02688 -0.102965,0.04508 -0.03426,0.01819 -0.06865,0.03978 -0.102965,0.06512 -0.01747,0.0129 -0.03484,0.03063 -0.05231,0.05287 -0.01748,0.02225 -0.03482,0.04861 -0.05231,0.07959 -0.03498,0.06196 -0.07016,0.141048 -0.105195,0.23432 -0.03504,0.09327 -0.0701,0.200862 -0.105195,0.320589 -0.03509,0.119726 -0.07005,0.251609 -0.105194,0.392941 -0.07027,0.282668 -0.140481,0.603949 -0.210942,0.943955 -0.07046,0.340009 -0.140862,0.69894 -0.2115,1.057497 -0.07063,0.358557 -0.141806,0.716392 -0.212612,1.054713 -0.0708,0.338322 -0.141651,0.656865 -0.212613,0.936163 -0.03548,0.139649 -0.07079,0.269756 -0.106304,0.387377 -0.03552,0.117623 -0.07131,0.222611 -0.106864,0.313352 -0.03555,0.09074 -0.07072,0.166952 -0.106304,0.225971 -0.01779,0.02951 -0.03563,0.05503 -0.05343,0.07569 -0.0178,0.02067 -0.03562,0.03664 -0.05343,0.04786 -0.07437,0.04688 -0.149245,0.105658 -0.223744,0.173651 -0.0745,0.06799 -0.148576,0.144943 -0.223187,0.227641 -0.07461,0.08269 -0.149594,0.171157 -0.224301,0.262147 -0.0747,0.09099 -0.149511,0.184856 -0.2243,0.277732 -0.07479,0.09288 -0.149443,0.184921 -0.224301,0.27328 -0.07485,0.08836 -0.149947,0.173027 -0.224856,0.250459 -0.07491,0.07744 -0.14991,0.147502 -0.224856,0.207604 -0.03747,0.03005 -0.07495,0.05786 -0.112429,0.08237 -0.03748,0.02451 -0.07494,0.04583 -0.112429,0.06401 -0.01997,0.0097 -0.03959,0.01618 -0.05956,0.01948 -0.01997,0.0033 -0.04014,0.0038 -0.06011,0.0011 -0.01997,-0.0027 -0.03958,-0.0085 -0.05955,-0.01669 -0.01997,-0.0082 -0.04014,-0.0189 -0.06011,-0.03228 -0.03994,-0.02677 -0.07972,-0.06354 -0.119664,-0.108533 -0.03994,-0.04499 -0.08028,-0.09863 -0.120222,-0.158623 -0.03994,-0.05999 -0.07973,-0.12637 -0.119663,-0.198142 -0.03993,-0.07177 -0.07974,-0.148428 -0.119664,-0.228755 -0.07984,-0.160649 -0.159522,-0.335415 -0.239327,-0.510937 -0.07981,-0.17552 -0.159582,-0.351901 -0.23933,-0.516504 -0.03987,-0.0823 -0.07981,-0.16181 -0.119664,-0.236543 -0.03985,-0.07474 -0.07983,-0.144772 -0.119663,-0.208719 -0.03984,-0.06394 -0.07985,-0.122051 -0.119663,-0.171981 -0.03981,-0.04993 -0.07932,-0.09198 -0.119108,-0.124673 -0.01989,-0.01635 -0.03967,-0.03031 -0.05955,-0.04175 -0.01988,-0.01143 -0.03968,-0.02004 -0.05955,-0.02616 -0.01988,-0.0061 -0.04024,-0.0096 -0.06011,-0.01002 -0.01987,-3.96e-4 -0.03969,0.002 -0.05955,0.0078 -0.02569,0.0074 -0.05084,0.01202 -0.07625,0.01392 -0.02541,0.0019 -0.05112,0.001 -0.07625,-0.0023 -0.02513,-0.0032 -0.04973,-0.0086 -0.07459,-0.01669 -0.02485,-0.0081 -0.05,-0.01816 -0.07459,-0.03061 -0.04916,-0.02491 -0.09775,-0.05857 -0.14582,-0.09907 -0.04807,-0.0405 -0.09549,-0.08815 -0.142483,-0.141373 -0.04699,-0.05323 -0.09322,-0.112212 -0.139148,-0.175321 -0.04593,-0.0631 -0.09148,-0.130229 -0.136359,-0.200369 -0.08976,-0.140275 -0.177615,-0.29175 -0.263261,-0.443033 -0.08565,-0.151284 -0.168813,-0.302445 -0.250461,-0.441922 -0.08165,-0.13948 -0.161572,-0.267488 -0.239328,-0.372349 -0.03888,-0.05243 -0.07729,-0.09909 -0.115212,-0.138589 -0.03792,-0.03951 -0.07544,-0.07145 -0.112428,-0.09518 -0.03699,-0.02372 -0.07358,-0.03888 -0.109645,-0.04397 -0.01803,-0.0026 -0.03563,-0.0027 -0.05343,0 -0.0178,0.0027 -0.03586,0.008 -0.05343,0.01615 -0.02548,0.01189 -0.05069,0.02671 -0.07569,0.04453 -0.02501,0.01781 -0.04948,0.03842 -0.07403,0.06178 -0.04908,0.04672 -0.09746,0.104247 -0.14471,0.17087 -0.04725,0.06663 -0.09368,0.142466 -0.139144,0.225971 -0.04546,0.0835 -0.08987,0.174812 -0.133579,0.272166 -0.04371,0.09735 -0.08656,0.200725 -0.128569,0.308899 -0.042,0.108174 -0.08322,0.220765 -0.123561,0.336732 -0.08068,0.231929 -0.157812,0.476394 -0.232092,0.721321 -0.04597,0.151566 -0.08328,0.277307 -0.1269,0.42634"
       sodipodi:nodetypes="cssssssssssccccsssssssscccccssssssscscsssssssssssssssssccssssssssssssssssssssssssssccsssssssscssscccssssssssssssscccscscssssscccccccscssssscsssscssscssssssssscsssssssssssssccccccscssscssssscscssssssssc" />
  </g>
</svg>
